<svg height="682pt" viewBox="-141 -21 682 682.66669" width="682pt" xmlns="http://www.w3.org/2000/svg"><path d="m191.835938 120.5c-43.566407 0-79.003907 35.4375-79.003907 78.996094s35.445313 79.003906 79.003907 79.003906c43.558593 0 79-35.445312 79-79.003906s-35.441407-78.996094-79-78.996094zm0 120.5c-22.886719 0-41.503907-18.617188-41.503907-41.5s18.617188-41.496094 41.503907-41.496094c22.878906 0 41.5 18.617188 41.5 41.496094 0 22.882812-18.621094 41.5-41.5 41.5zm0 0"/><path d="m391.332031 199.5c0-28.019531-15.398437-53.671875-38.148437-66.828125 6.777344-25.398437-.46875-54.421875-20.285156-74.242187-19.816407-19.8125-48.835938-27.058594-74.230469-20.273438-13.164063-22.761719-38.808594-38.15625-66.832031-38.15625-28.023438 0-53.671876 15.398438-66.832032 38.148438-25.398437-6.78125-54.421875.464843-74.242187 20.285156-19.808594 19.816406-27.050781 48.839844-20.273438 74.238281-22.753906 13.15625-38.15625 38.808594-38.15625 66.828125 0 28.03125 15.402344 53.671875 38.152344 66.84375-6.777344 25.390625.460937 54.40625 20.277344 74.222656 19.8125 19.824219 48.835937 27.074219 74.242187 20.292969 10.152344 17.539063 27.71875 30.699219 48.082032 35.8125v69.28125c-1.285157-1.375-37.320313-44.199219-101.753907-44.199219h-20.082031c-10.351562 0-18.75 8.394532-18.75 18.75 0 76.902344 62.214844 139.246094 139.253906 139.246094h1.332032v41.5c0 10.355469 8.394531 18.75 18.75 18.75 10.351562 0 18.75-8.394531 18.75-18.75v-41.5h1.328124c76.914063 0 139.253907-62.214844 139.253907-139.246094 0-10.355468-8.394531-18.75-18.75-18.75h-20.105469c-64.4375 0-100.390625 42.757813-101.730469 44.1875v-69.269531c20.359375-5.113281 37.929688-18.273437 48.078125-35.8125 25.398438 6.78125 54.421875-.46875 74.238282-20.289063 19.816406-19.820312 27.0625-48.835937 20.285156-74.226562 22.75-13.171875 38.148437-38.820312 38.148437-66.84375zm-319.617187 259.753906c28.78125.105469 87.722656 18.617188 99.65625 82.992188-40.652344-.144532-89.449219-27.890625-99.65625-82.992188zm240.238281 0c-12.199219 65.863282-72.210937 82.894532-99.660156 82.992188 12.21875-65.996094 72.421875-82.902344 99.660156-82.992188zm12.679687-221.679687c-6.1875 1.191406-11.367187 5.410156-13.777343 11.234375-2.410157 5.824218-1.734375 12.472656 1.800781 17.691406 9.5 14.03125 6.804688 34.476562-6.269531 47.554688-13.085938 13.078124-33.535157 15.78125-47.5625 6.277343-5.226563-3.535156-11.871094-4.214843-17.691407-1.800781-5.820312 2.414062-10.042968 7.585938-11.234374 13.777344-3.203126 16.640625-19.570313 29.191406-38.0625 29.191406-18.496094 0-34.859376-12.550781-38.0625-29.191406-1.191407-6.183594-5.414063-11.367188-11.238282-13.777344-1.296875-.53125-9.429687-3.796875-17.6875 1.800781-14.039062 9.503907-34.488281 6.808594-47.5625-6.277343-13.082031-13.078126-15.773437-33.523438-6.269531-47.554688 3.535156-5.21875 4.207031-11.867188 1.796875-17.691406-2.414062-5.824219-7.589844-10.042969-13.78125-11.234375-16.644531-3.203125-29.199219-19.574219-29.199219-38.074219 0-18.492188 12.554688-34.855469 29.199219-38.058594 6.1875-1.191406 11.367188-5.417968 13.78125-11.242187 2.40625-5.820313 1.734375-12.464844-1.800781-17.683594-9.503907-14.035156-6.808594-34.484375 6.269531-47.5625 13.078125-13.082031 33.527344-15.777344 47.566406-6.273437 5.21875 3.539062 11.867188 4.210937 17.6875 1.796874 5.824219-2.410156 10.042969-7.589843 11.234375-13.777343 3.207031-16.644531 19.570313-29.199219 38.066407-29.199219 18.492187 0 34.859374 12.554688 38.0625 29.199219 1.191406 6.1875 5.414062 11.367187 11.234374 13.777343 5.824219 2.410157 12.46875 1.734376 17.691407-1.800781 14.03125-9.5 34.476562-6.804687 47.558593 6.265625 13.074219 13.089844 15.773438 33.539063 6.273438 47.574219-3.535156 5.21875-4.214844 11.863281-1.800781 17.683594 2.410156 5.824219 7.589843 10.042969 13.777343 11.238281 16.644532 3.207031 29.199219 19.570312 29.199219 38.058594 0 18.503906-12.554687 34.875-29.199219 38.078125zm0 0"/></svg>